<?xml version="1.0" encoding="UTF-8"?>
<!DOCTYPE svg PUBLIC "-//W3C//DTD SVG 1.1//EN" "http://www.w3.org/Graphics/SVG/1.1/DTD/svg11.dtd">
<!-- Creator: CorelDRAW -->
<svg xmlns="http://www.w3.org/2000/svg" xml:space="preserve" width="297mm" height="210mm" version="1.1" style="shape-rendering:geometricPrecision; text-rendering:geometricPrecision; image-rendering:optimizeQuality; fill-rule:evenodd; clip-rule:evenodd"
viewBox="0 0 29700 21000"
 xmlns:xlink="http://www.w3.org/1999/xlink"
 xmlns:xodm="http://www.corel.com/coreldraw/odm/2003">
 <defs>
  <style type="text/css">
   <![CDATA[
    .fil0 {fill:#B95039;fill-rule:nonzero}
    .fil1 {fill:#26526E;fill-rule:nonzero}
    .fil2 {fill:#27465E;fill-rule:nonzero}
   ]]>
  </style>
 </defs>
 <g id="Camada_x0020_1">
  <metadata id="CorelCorpID_0Corel-Layer"/>
  <g id="_2607653808992">
   <g>
    <path class="fil0" d="M9599.83 5747.24c-225.12,0 -407.58,182.48 -407.58,407.58 0,225.07 182.46,407.57 407.58,407.57 225.09,0 407.59,-182.5 407.59,-407.57 0,-225.1 -182.5,-407.58 -407.59,-407.58l0 0zm0 222.58c102.01,0 185.01,82.98 185.01,185 0,102.01 -83,185 -185.01,185 -102.02,0 -185.01,-82.99 -185.01,-185 0,-102.02 82.99,-185 185.01,-185z"/>
    <path class="fil1" d="M11444.46 1941.05l1367.64 4119.25c465.45,-436.14 756.69,-1055.94 756.69,-1744.12 0,-1230.15 -929.44,-2242.83 -2124.33,-2375.13l0 0zm331.07 290.77c916.49,260.23 1570.69,1101.09 1570.69,2084.36 0,482.96 -155.14,938.16 -442.67,1313.1l-1128.02 -3397.46z"/>
    <path class="fil1" d="M10912.3 1941.1c-1194.49,132.4 -2123.77,1145.15 -2123.77,2375.27 0,504.13 156.18,971.18 422.92,1356.23 106.45,-88.28 242.96,-141.33 392.45,-141.33 38.59,0 76.43,3.71 113.16,10.39l1195.24 -3600.56 0 0zm-331.06 290.83l-1021.77 3077.95c-94.51,5.01 -187.21,26.08 -273.98,61.69 -180.05,-321.1 -274.38,-682.01 -274.38,-1055.2 0,-983.24 653.97,-1824.06 1570.13,-2084.44z"/>
    <path class="fil1" d="M11161.95 4772.28c-373.91,0 -726.72,90.89 -1038.31,251.14l-198.48 598c176.59,108.32 294.56,303.07 294.56,525.64 0,116.11 -32.3,225.18 -88.3,317.92 316.05,154.69 671.45,241.49 1047.23,241.49 545.7,0 1047.95,-183.25 1450.45,-491.14l-389.14 -1171.51c-320.85,-173.23 -688.12,-271.54 -1078.01,-271.54l0 0zm0 222.58c310.44,0 618.19,70.85 895.47,205.43l308.61 929.09c-353.02,232.44 -760.4,354.52 -1187.38,354.52 -263.6,0 -518.54,-46.03 -760.4,-137.15 15.89,-65.03 24.04,-132.05 24.04,-199.69 0,-232.29 -93.51,-447.97 -256.53,-604.22l119.64 -360.5c269.48,-124.46 557.16,-187.48 856.55,-187.48z"/>
    <path class="fil1" d="M11178.59 1926c-9,0 -17.88,0.55 -26.85,0.67l-932.09 2807.88c291.09,-118.86 609.12,-184.92 942.45,-184.92 347.82,0 679.2,71.55 980.41,200.39l-937.39 -2823.35c-8.86,-0.12 -17.61,-0.67 -26.53,-0.67l0 0zm-0.15 626.67l613.52 1847.84c-205.1,-48.86 -415.67,-73.45 -629.86,-73.45 -201.46,0 -400.22,21.99 -594.43,65.58l610.77 -1839.97z"/>
   </g>
   <g>
    <path class="fil2" d="M5665.25 10625.8c-83.17,0 -147.9,-27.89 -194.2,-83.68l28.42 -32.35c16.8,24.74 39.84,44.37 69.03,58.79 29.27,14.5 64.37,21.71 105.39,21.71 53.17,0 95.27,-11.05 126.35,-33.14 31.01,-22.1 46.52,-53.93 46.52,-95.52 0,-28.93 -12.2,-50.93 -36.68,-65.91 -24.45,-14.99 -59.88,-27.75 -106.18,-38.29 -23.66,-5.26 -44.58,-11.05 -62.77,-17.36 -18.13,-6.34 -33.53,-13.84 -46.18,-22.48 -12.58,-8.72 -22.22,-19.21 -28.78,-31.61 -6.6,-12.34 -9.87,-27.22 -9.87,-44.58 0,-28.94 5.79,-54.91 17.36,-77.76 11.57,-22.89 27.34,-42.22 47.37,-58.02 20,-15.79 43.82,-27.9 71.41,-36.31 27.63,-8.42 57.5,-12.65 89.62,-12.65 34.72,0 64.63,5.41 89.59,16.2 25.01,10.8 45.93,27.2 62.77,49.34l-27.63 31.57c-25.27,-40.51 -69.45,-60.8 -132.62,-60.8 -31.06,0 -57.5,3.56 -79.32,10.68 -21.84,7.13 -39.88,16.7 -54.08,28.79 -14.21,12.14 -24.6,26.45 -31.2,43.03 -6.56,16.59 -9.87,34.62 -9.87,54.1 0,13.68 2.78,25.22 8.31,34.72 5.49,9.45 13.8,17.65 24.86,24.44 11.05,6.86 24.89,12.91 41.43,18.22 16.58,5.22 35.94,10.49 58.02,15.72 23.71,5.82 45.41,12.02 65.14,18.55 19.73,6.6 36.43,14.76 50.11,24.52 13.7,9.72 24.35,21.29 31.98,34.72 7.6,13.4 11.46,29.87 11.46,49.34 0,28.41 -5.66,53.64 -16.98,75.75 -11.31,22.15 -27.12,40.55 -47.37,55.27 -20.25,14.77 -44.22,25.94 -71.82,33.58 -27.64,7.6 -57.5,11.42 -89.59,11.42z"/>
    <path class="fil2" d="M6273.07 10593.42c23.67,0 47.23,-5.75 70.67,-17.36 23.4,-11.53 44.18,-27.09 62.36,-46.56 18.14,-19.48 32.86,-41.96 44.18,-67.51 11.31,-25.49 16.99,-52.2 16.99,-80.1 0,-19.99 -2.89,-38.68 -8.68,-56.09 -5.82,-17.32 -13.8,-32.46 -24.12,-45.33 -10.23,-12.9 -22.73,-23.03 -37.49,-30.41 -14.69,-7.38 -30.76,-11.02 -48.12,-11.02 -23.67,0 -46.97,5.78 -69.86,17.32 -22.88,11.61 -43.54,27.27 -61.99,46.96 -18.39,19.74 -33.3,42.52 -44.58,68.3 -11.32,25.78 -16.95,52.9 -16.95,81.32 0,19.99 2.86,38.54 8.64,55.64 5.78,17.1 13.84,31.94 24.11,44.59 10.25,12.65 22.59,22.51 37.1,29.6 14.43,7.13 30.38,10.65 47.74,10.65zm-7.12 35.53c-23.64,0 -44.85,-4.49 -63.54,-13.42 -18.7,-8.9 -34.43,-21.15 -47.34,-36.69 -12.92,-15.5 -22.89,-33.68 -30.01,-54.46 -7.09,-20.81 -10.65,-43.03 -10.65,-66.73 0,-33.13 6.71,-65.1 20.11,-95.89 13.46,-30.79 31.45,-57.88 54.08,-81.29 22.63,-23.44 48.56,-42.13 77.75,-56.09 29.2,-13.91 59.36,-20.88 90.41,-20.88 23.15,0 44.07,4.6 62.73,13.81 18.7,9.23 34.5,21.58 47.37,37.08 12.91,15.55 22.89,33.84 30.01,54.87 7.09,21.03 10.65,43.4 10.65,67.11 0,32.64 -6.71,64.21 -20.14,94.71 -13.4,30.56 -31.32,57.49 -53.64,80.9 -22.41,23.45 -48.05,42.15 -76.98,56.06 -28.98,13.94 -59.21,20.91 -90.81,20.91z"/>
    <path class="fil2" d="M6782.18 10625.8c-17.88,0 -31.83,-4.86 -41.81,-14.57 -10.01,-9.76 -15.02,-23.04 -15.02,-39.88 0,-5.79 0.81,-12.36 2.37,-19.78l107.36 -506.77 39.47 0 -104.98 494.97c-0.53,2.6 -0.93,5.02 -1.19,7.09 -0.26,2.11 -0.41,4.46 -0.41,7.13 0,11.05 3.3,19.73 9.91,26.04 6.56,6.31 16.17,9.46 28.79,9.46 5.81,0 12.64,-0.67 20.5,-1.97 7.91,-1.3 15.29,-3.3 22.15,-5.94l0 31.57c-8.97,3.71 -20.14,6.72 -33.57,9.13 -13.42,2.34 -24.63,3.52 -33.57,3.52z"/>
    <path class="fil2" d="M7183.23 10628.95c-63.69,0 -95.52,-35.79 -95.52,-107.35 0,-10.53 0.63,-21.96 1.96,-34.31 1.3,-12.4 3.57,-25.68 6.71,-39.89l51.31 -236.81 38.69 0 -48.97 231.29c-5.78,26.3 -8.67,48.67 -8.67,67.1 0,56.28 24.48,84.44 73.45,84.44 16.28,0 32.86,-3 49.7,-9.05 16.85,-6.05 33.02,-14.5 48.56,-25.3 15.5,-10.76 30.09,-23.78 43.81,-39.02 13.69,-15.25 25.23,-32.13 34.72,-50.57l54.49 -258.89 39.44 0 -72.63 343.4c-1.04,4.18 -1.93,8.12 -2.75,11.83 -0.78,3.67 -1.19,6.05 -1.19,7.09 0,8.42 4.49,12.6 13.43,12.6l-7.89 35.55c-3.68,0.51 -6.83,0.81 -9.5,0.81 -2.6,0 -5.24,0 -7.83,0 -8.46,0 -14.91,-2.75 -19.36,-8.31 -4.49,-5.52 -6.75,-11.95 -6.75,-19.33 0,-1.55 0.14,-3.4 0.4,-5.52 0.26,-2.08 0.82,-5.53 1.59,-10.28 0.82,-4.71 2.12,-11.46 3.98,-20.11 1.82,-8.67 4.33,-20.14 7.49,-34.34 -24.22,33.15 -53.04,58.94 -86.43,77.34 -33.47,18.43 -67.52,27.63 -102.24,27.63z"/>
    <path class="fil2" d="M7751.58 10719.73c6.82,3.67 15.8,7.12 26.85,10.28 11.06,3.15 22.9,4.75 35.5,4.75 34.21,0 51.35,-11.87 51.35,-35.54 0,-8.42 -3.05,-14.21 -9.13,-17.36 -6.04,-3.16 -13.79,-4.76 -23.26,-4.76 -10.56,0 -21.85,1.31 -33.98,3.98 -12.09,2.63 -21.59,4.97 -28.37,7.09l44.17 -59.99c-21.03,-2.12 -39.99,-8.02 -56.82,-17.78 -16.85,-9.71 -31.2,-22.32 -43,-37.86 -11.83,-15.51 -20.96,-33.31 -27.27,-53.31 -6.31,-19.99 -9.45,-41.29 -9.45,-63.92 0,-33.68 6.56,-65.66 19.73,-95.9 13.13,-30.3 30.9,-57.01 53.27,-80.16 22.38,-23.14 48.15,-41.59 77.35,-55.24 29.23,-13.69 60.13,-20.51 92.78,-20.51 35.75,0 65.39,8.42 88.8,25.23 23.41,16.84 38.8,40.28 46.18,70.29l-41.84 12.62c-6.31,-22.63 -18.69,-40.37 -37.09,-53.31 -18.44,-12.87 -40.26,-19.29 -65.55,-19.29 -24.74,0 -48.67,5.64 -71.82,16.95 -23.15,11.32 -43.7,26.56 -61.55,45.78 -17.91,19.18 -32.38,41.58 -43.43,67.11 -11.06,25.52 -16.55,52.49 -16.55,80.9 0,20 2.85,38.8 8.65,56.46 5.78,17.59 13.84,32.87 24.07,45.74 10.27,12.91 22.77,23.04 37.51,30.38 14.72,7.42 30.79,11.06 48.15,11.06 13.69,0 27.63,-2.08 41.84,-6.31 14.2,-4.19 27.63,-9.71 40.25,-16.58 12.65,-6.82 23.78,-14.84 33.54,-24.04 9.75,-9.2 17.24,-18.81 22.51,-28.86l36.32 11.09c-7.9,14.21 -18.02,27.19 -30.38,39.07 -12.39,11.83 -26.05,22.11 -41.06,30.79 -15,8.68 -31.1,15.8 -48.16,21.29 -17.1,5.56 -34.32,8.57 -51.71,9.08l-26.85 33.95c4.74,-2.07 9.9,-3.45 15.39,-3.93 5.56,-0.56 10.42,-0.81 14.62,-0.81 30.52,0 45.77,12.12 45.77,36.31 0,20 -7.09,35.28 -21.29,45.78 -14.21,10.53 -34.73,15.79 -61.58,15.79 -13.69,0 -26.45,-1.44 -38.25,-4.33 -11.87,-2.89 -22.26,-6.45 -31.2,-10.65l14.99 -21.33z"/>
    <path class="fil2" d="M8547.25 10110.35c-11.05,0 -20.5,-1.6 -28.41,-4.75 -7.9,-3.14 -15.03,-6.71 -21.33,-10.64 -6.27,-3.98 -12.35,-7.65 -18.14,-11.05 -5.79,-3.45 -12.65,-5.17 -20.51,-5.17 -8.42,0 -15.51,1.86 -21.34,5.57 -5.78,3.63 -10.39,7.76 -13.79,12.2 -3.45,4.49 -6.09,8.69 -7.91,12.65 -1.81,3.94 -2.78,6.42 -2.78,7.5l-26.82 0c0.52,-2.11 2.37,-6.72 5.53,-13.81 3.15,-7.11 7.9,-14.5 14.21,-22.1 6.34,-7.64 14.24,-14.51 23.67,-20.56 9.49,-6.04 21.07,-9.08 34.75,-9.08 9.98,0 18.55,1.74 25.64,5.15 7.12,3.46 13.79,7.09 20.14,11.06 6.3,3.94 12.61,7.49 18.95,10.64 6.31,3.2 14.21,4.76 23.67,4.76 9.98,0 18.14,-1.86 24.48,-5.53 6.31,-3.67 11.47,-7.8 15.4,-12.24 3.93,-4.45 6.82,-8.69 8.64,-12.65 1.86,-3.94 2.82,-6.46 2.82,-7.5l26.05 0c-0.56,2.64 -2.41,7.5 -5.57,14.62 -3.15,7.08 -8.01,14.32 -14.58,21.74 -6.6,7.34 -15.02,14.06 -25.26,20.11 -10.24,6.04 -22.78,9.08 -37.51,9.08zm-145.26 483.07c23.7,0 47.26,-5.75 70.71,-17.36 23.36,-11.53 44.17,-27.09 62.31,-46.56 18.14,-19.48 32.91,-41.96 44.22,-67.51 11.28,-25.49 16.99,-52.2 16.99,-80.1 0,-19.99 -2.89,-38.68 -8.71,-56.09 -5.79,-17.32 -13.8,-32.46 -24.09,-45.33 -10.27,-12.9 -22.73,-23.03 -37.49,-30.41 -14.69,-7.38 -30.76,-11.02 -48.15,-11.02 -23.63,0 -46.93,5.78 -69.86,17.32 -22.89,11.61 -43.51,27.27 -61.94,46.96 -18.45,19.74 -33.32,42.52 -44.63,68.3 -11.29,25.78 -16.95,52.9 -16.95,81.32 0,19.99 2.89,38.54 8.67,55.64 5.79,17.1 13.84,31.94 24.08,44.59 10.28,12.65 22.63,22.51 37.09,29.6 14.47,7.13 30.42,10.65 47.75,10.65zm-7.09 35.53c-23.67,0 -44.84,-4.49 -63.54,-13.42 -18.7,-8.9 -34.47,-21.15 -47.34,-36.69 -12.9,-15.5 -22.93,-33.68 -30.01,-54.46 -7.09,-20.81 -10.64,-43.03 -10.64,-66.73 0,-33.13 6.7,-65.1 20.1,-95.89 13.43,-30.79 31.45,-57.88 54.08,-81.29 22.6,-23.44 48.56,-42.13 77.76,-56.09 29.2,-13.91 59.32,-20.88 90.36,-20.88 23.16,0 44.12,4.6 62.77,13.81 18.67,9.23 34.47,21.58 47.37,37.08 12.92,15.55 22.89,33.84 30.01,54.87 7.09,21.03 10.66,43.4 10.66,67.11 0,32.64 -6.72,64.21 -20.15,94.71 -13.43,30.56 -31.31,57.49 -53.68,80.9 -22.37,23.45 -48.04,42.15 -76.98,56.06 -28.92,13.94 -59.2,20.91 -90.77,20.91z"/>
    <path class="fil2" d="M9091.12 10235.84c-24.74,0 -47.52,4.64 -68.25,13.84 -20.81,9.2 -39.36,21.3 -55.68,36.28 -16.32,15 -30.28,32.24 -41.81,51.72 -11.61,19.47 -20.3,39.47 -26.04,59.99 22.07,1.58 41.92,2.63 59.57,3.18 17.63,0.49 34.84,0.75 51.72,0.75 32.61,0 60.09,-2.2 82.46,-6.68 22.37,-4.46 40.4,-10.65 54.09,-18.55 13.65,-7.9 23.56,-17.25 29.6,-28.04 6.05,-10.76 9.06,-22.75 9.06,-35.91 0,-13.14 -2.76,-24.6 -8.25,-34.36 -5.56,-9.68 -12.65,-17.73 -21.37,-24.03 -8.64,-6.35 -18.8,-10.95 -30.38,-13.84 -11.57,-2.85 -23.14,-4.35 -34.72,-4.35zm-84.47 393.11c-24.74,0 -46.7,-4.59 -65.88,-13.79 -19.25,-9.2 -35.54,-21.74 -48.97,-37.51 -13.43,-15.76 -23.55,-34.2 -30.38,-55.27 -6.86,-21.03 -10.27,-43.41 -10.27,-67.07 0,-32.12 6.19,-63.29 18.55,-93.55 12.39,-30.24 29.64,-57.1 51.71,-80.54 22.11,-23.41 48,-42.18 77.75,-56.43 29.75,-14.2 61.99,-21.29 96.67,-21.29 16.32,0 32.13,2.33 47.42,7.09 15.25,4.75 28.78,11.72 40.62,20.92 11.86,9.2 21.32,20.66 28.41,34.31 7.09,13.69 10.69,29.49 10.69,47.41 0,78.91 -71.6,118.37 -214.72,118.37 -16.85,0 -34.65,-0.25 -53.27,-0.78 -18.7,-0.51 -39.36,-1.59 -61.99,-3.18 -0.52,4.26 -0.93,8.71 -1.19,13.47 -0.25,4.74 -0.37,9.19 -0.37,13.38 0,19.48 2.45,37.92 7.5,55.28 5.01,17.36 12.61,32.49 22.88,45.41 10.25,12.9 23.16,23.14 38.66,30.74 15.54,7.65 33.53,11.47 54.09,11.47 13.13,0 26.71,-1.97 40.65,-5.93 13.96,-3.94 27.24,-9.47 39.89,-16.59 12.61,-7.08 24.29,-15.8 35.09,-26.04 10.79,-10.24 19.84,-21.7 27.26,-34.35l33.13 10.31c-9.46,15.73 -20.89,29.98 -34.36,42.59 -13.38,12.65 -28.11,23.59 -44.17,32.79 -16.07,9.2 -33.05,16.28 -50.9,21.3 -17.91,5 -36.1,7.48 -54.5,7.48z"/>
    <path class="fil2" d="M9537.14 10628.95c-30.02,0 -57.77,-5.22 -83.29,-15.8 -25.56,-10.49 -46.18,-26.3 -61.95,-47.33l24.44 -26.86c17.37,20.03 36.21,34.76 56.46,44.22 20.22,9.5 43.78,14.21 70.63,14.21 18.96,0 36.44,-2.38 52.5,-7.12 16.07,-4.76 29.98,-11.29 41.84,-19.74 11.84,-8.42 21.04,-18.65 27.64,-30.76 6.57,-12.09 9.87,-25.77 9.87,-41.06 0,-19.99 -9.2,-34.72 -27.64,-44.22 -18.43,-9.45 -44.74,-18.65 -78.94,-27.6 -18.44,-4.74 -34.47,-9.5 -48.15,-14.24 -13.69,-4.71 -25.15,-10.09 -34.35,-16.14 -9.2,-6.05 -16.17,-13.31 -20.93,-21.74 -4.74,-8.42 -7.08,-18.66 -7.08,-30.75 0,-22.66 4.75,-42.77 14.21,-60.39 9.5,-17.66 22.11,-32.39 37.87,-44.25 15.8,-11.8 34.06,-20.74 54.91,-26.8 20.74,-6.04 42.43,-9.08 65.1,-9.08 30.53,0 56.43,5.38 77.75,16.17 21.34,10.8 36.43,24.6 45.38,41.44l-26.05 21.3c-8.94,-15.78 -23,-27.64 -42.22,-35.55 -19.21,-7.82 -40.69,-11.79 -64.32,-11.79 -16.35,0 -31.86,1.96 -46.6,5.9 -14.76,3.97 -27.74,10.02 -39.09,18.18 -11.27,8.16 -20.4,18.43 -27.2,30.79 -6.85,12.38 -10.3,26.97 -10.3,43.77 0,8.97 1.85,16.51 5.56,22.52 3.67,6.08 9.09,11.31 16.17,15.76 7.12,4.53 16.18,8.46 27.23,11.87 11.09,3.45 23.93,6.97 38.7,10.65 20.5,5.27 38.8,10.54 54.86,15.81 16.06,5.22 29.71,11.42 41.06,18.54 11.28,7.08 19.85,15.55 25.64,25.22 5.79,9.76 8.68,21.44 8.68,35.18 0,20.51 -4.49,39.31 -13.43,56.41 -8.95,17.11 -21.29,31.87 -37.1,44.23 -15.8,12.39 -34.57,21.96 -56.42,28.82 -21.85,6.79 -45.67,10.23 -71.44,10.23z"/>
    <path class="fil2" d="M10544.4 10235.84c-24.74,0 -47.52,4.64 -68.29,13.84 -20.77,9.2 -39.32,21.3 -55.67,36.28 -16.29,15 -30.25,32.24 -41.81,51.72 -11.58,19.47 -20.26,39.47 -26.05,59.99 22.11,1.58 41.96,2.63 59.61,3.18 17.59,0.49 34.84,0.75 51.68,0.75 32.64,0 60.1,-2.2 82.5,-6.68 22.38,-4.46 40.4,-10.65 54.09,-18.55 13.65,-7.9 23.55,-17.25 29.6,-28.04 6.05,-10.76 9.06,-22.75 9.06,-35.91 0,-13.14 -2.75,-24.6 -8.28,-34.36 -5.53,-9.68 -12.61,-17.73 -21.33,-24.03 -8.64,-6.35 -18.81,-10.95 -30.39,-13.84 -11.56,-2.85 -23.14,-4.35 -34.72,-4.35zm-84.46 393.11c-24.74,0 -46.71,-4.59 -65.89,-13.79 -19.25,-9.2 -35.53,-21.74 -48.96,-37.51 -13.43,-15.76 -23.59,-34.2 -30.39,-55.27 -6.85,-21.03 -10.27,-43.41 -10.27,-67.07 0,-32.12 6.19,-63.29 18.55,-93.55 12.39,-30.24 29.6,-57.1 51.71,-80.54 22.11,-23.41 48.01,-42.18 77.75,-56.43 29.75,-14.2 61.99,-21.29 96.67,-21.29 16.33,0 32.1,2.33 47.42,7.09 15.24,4.75 28.78,11.72 40.62,20.92 11.87,9.2 21.29,20.66 28.41,34.31 7.09,13.69 10.69,29.49 10.69,47.41 0,78.91 -71.6,118.37 -214.72,118.37 -16.84,0 -34.65,-0.25 -53.3,-0.78 -18.7,-0.51 -39.33,-1.59 -61.99,-3.18 -0.49,4.26 -0.9,8.71 -1.15,13.47 -0.3,4.74 -0.41,9.19 -0.41,13.38 0,19.48 2.48,37.92 7.53,55.28 4.97,17.36 12.58,32.49 22.89,45.41 10.23,12.9 23.15,23.14 38.66,30.74 15.54,7.65 33.53,11.47 54.08,11.47 13.13,0 26.71,-1.97 40.62,-5.93 13.94,-3.94 27.27,-9.47 39.92,-16.59 12.61,-7.08 24.3,-15.8 35.09,-26.04 10.8,-10.24 19.84,-21.7 27.22,-34.35l33.17 10.31c-9.46,15.73 -20.92,29.98 -34.35,42.59 -13.39,12.65 -28.16,23.59 -44.18,32.79 -16.07,9.2 -33.05,16.28 -50.9,21.3 -17.92,5 -36.1,7.48 -54.49,7.48z"/>
    <path class="fil2" d="M10954.87 10210.59l37.14 0 -21.37 97.89c23.18,-33.16 49.74,-58.94 79.76,-77.35 29.98,-18.43 60.5,-27.63 91.59,-27.63 32.09,0 55.64,9.83 70.63,29.57 14.98,19.77 22.48,47.74 22.48,84.09 22.11,-37.39 48.82,-65.66 80.17,-84.87 31.26,-19.22 63.5,-28.79 96.67,-28.79 31.61,0 54.46,8.79 68.7,26.41 14.17,17.66 21.29,42.77 21.29,75.42 0,23.14 -3.15,49.71 -9.45,79.72l-50.53 236.01 -39.51 0 48.93 -228.92c5.27,-25.79 7.9,-49.2 7.9,-70.23 0,-54.75 -22.59,-82.13 -67.88,-82.13 -15.77,0 -31.42,3.15 -46.93,9.49 -15.54,6.31 -30.42,15 -44.58,26.05 -14.25,11.05 -27.58,24.45 -39.92,40.25 -12.36,15.8 -23.01,33.16 -31.95,52.09l-52.89 253.4 -39.48 0 48.2 -228.92c3.15,-14.18 5.34,-27.23 6.67,-39.07 1.3,-11.87 1.97,-22.78 1.97,-32.76 0,-53.68 -22.38,-80.53 -67.11,-80.53 -15.76,0 -31.57,3.05 -47.34,9.09 -15.79,6.05 -30.79,14.77 -45,26.04 -14.23,11.36 -27.37,24.74 -39.46,40.25 -12.13,15.54 -22.93,32.79 -32.36,51.75l-53.71 254.15 -39.46 0 86.83 -410.47z"/>
    <path class="fil2" d="M12297.57 10625.02c-32.61,0 -59.98,-4.86 -82.09,-14.62 -22.11,-9.71 -39.84,-22.88 -53.27,-39.46 -13.43,-16.58 -23.15,-36.06 -29.24,-58.39 -6.04,-22.37 -9.04,-46.45 -9.04,-72.26 0,-31.06 3.67,-63.66 11.05,-97.86l59.98 -281.83 40.26 0 -59.98 281.83c-3.16,15.76 -5.8,31.3 -7.91,46.55 -2.07,15.29 -3.16,30.27 -3.16,45 0,21.58 2.38,41.69 7.13,60.39 4.75,18.66 12.65,35.02 23.66,48.97 11.06,13.95 25.52,24.86 43.41,32.72 17.92,7.9 39.99,11.87 66.32,11.87 35.76,0 66.96,-7.13 93.57,-21.33 26.55,-14.21 49.18,-32.87 67.88,-56.05 18.66,-23.15 33.94,-49.45 45.78,-78.95 11.83,-29.45 20.92,-59.2 27.22,-89.17l59.21 -281.83 40.25 0 -59.17 281.83c-7.9,37.88 -19.36,73.78 -34.35,107.72 -14.99,33.94 -34.1,63.95 -57.24,90.03 -23.15,26.05 -50.38,46.67 -81.68,61.96 -31.35,15.28 -67.52,22.88 -108.59,22.88z"/>
    <path class="fil2" d="M12884.14 10210.59l37.14 0 -21.37 97.89c11.05,-15.8 23.96,-30.12 38.69,-43.02 14.73,-12.89 30.42,-23.94 46.96,-33.17 16.58,-9.2 33.69,-16.32 51.34,-21.29 17.59,-5.01 35.09,-7.5 52.5,-7.5 31.52,0 54.19,8.42 67.88,25.23 13.65,16.84 20.51,41.32 20.51,73.45 0,12.09 -0.92,24.96 -2.78,38.65 -1.81,13.69 -4.34,28.41 -7.49,44.22l-49.75 236.01 -39.43 0 48.15 -228.92c3.15,-14.74 5.38,-28.12 6.67,-40.26 1.34,-12.09 2.01,-23.18 2.01,-33.16 0,-52.6 -21.85,-78.94 -65.51,-78.94 -16.32,0 -33.17,3.15 -50.53,9.49 -17.4,6.31 -34.09,15.25 -50.11,26.87 -16.07,11.53 -30.94,25.11 -44.63,40.61 -13.69,15.55 -24.96,32.24 -33.94,50.16l-53.69 254.15 -39.46 0 86.84 -410.47z"/>
    <path class="fil2" d="M13513.26 10044.8l39.46 0 -14.98 72.64 -39.47 0 14.99 -72.64zm-35.55 165.79l39.51 0 -86.84 410.47 -39.47 0 86.8 -410.47z"/>
    <path class="fil2" d="M13802.94 10242.93l-54.45 0 7.12 -32.34 55.23 0 2.34 -13.4c10.02,-50.56 28.04,-89.88 54.09,-118.04 26.08,-28.16 56.46,-42.25 91.18,-42.25 14.72,0 28.56,2.41 41.47,7.12 12.87,4.75 23.29,11.06 31.16,18.92l-20.52 28.45c-5.27,-5.78 -12.75,-10.53 -22.51,-14.2 -9.72,-3.67 -19.89,-5.53 -30.38,-5.53 -25.27,0 -47.34,10.53 -66.29,31.57 -18.96,21.07 -31.87,52.12 -38.7,93.15l-2.37 14.21 109.69 0 -7.08 32.34 -110.48 0 -115.29 546.28 -39.43 0 115.22 -546.28z"/>
    <path class="fil2" d="M14266.31 10593.42c23.7,0 47.26,-5.75 70.71,-17.36 23.36,-11.53 44.17,-27.09 62.31,-46.56 18.15,-19.48 32.91,-41.96 44.23,-67.51 11.27,-25.49 16.98,-52.2 16.98,-80.1 0,-19.99 -2.89,-38.68 -8.72,-56.09 -5.78,-17.32 -13.79,-32.46 -24.07,-45.33 -10.27,-12.9 -22.74,-23.03 -37.5,-30.41 -14.7,-7.38 -30.75,-11.02 -48.16,-11.02 -23.62,0 -46.93,5.78 -69.85,17.32 -22.88,11.61 -43.51,27.27 -61.95,46.96 -18.43,19.74 -33.31,42.52 -44.62,68.3 -11.28,25.78 -16.95,52.9 -16.95,81.32 0,19.99 2.89,38.54 8.67,55.64 5.79,17.1 13.84,31.94 24.08,44.59 10.27,12.65 22.63,22.51 37.1,29.6 14.46,7.13 30.41,10.65 47.74,10.65zm-7.09 35.53c-23.67,0 -44.85,-4.49 -63.54,-13.42 -18.7,-8.9 -34.46,-21.15 -47.34,-36.69 -12.91,-15.5 -22.93,-33.68 -30,-54.46 -7.09,-20.81 -10.66,-43.03 -10.66,-66.73 0,-33.13 6.72,-65.1 20.11,-95.89 13.43,-30.79 31.46,-57.88 54.09,-81.29 22.59,-23.44 48.55,-42.13 77.75,-56.09 29.19,-13.91 59.32,-20.88 90.36,-20.88 23.16,0 44.11,4.6 62.77,13.81 18.66,9.23 34.47,21.58 47.37,37.08 12.91,15.55 22.89,33.84 30.01,54.87 7.09,21.03 10.65,43.4 10.65,67.11 0,32.64 -6.72,64.21 -20.14,94.71 -13.43,30.56 -31.31,57.49 -53.67,80.9 -22.38,23.45 -48.05,42.15 -76.99,56.06 -28.93,13.94 -59.2,20.91 -90.77,20.91z"/>
    <path class="fil2" d="M14790.44 10210.59l37.91 0 -22.1 101.05c22.1,-31.57 47.47,-56.47 76.19,-74.61 28.68,-18.14 56.42,-27.26 83.29,-27.26 5.22,0 8.93,0.3 11.05,0.82l-7.91 35.54c-35.24,1.03 -68.04,11.94 -98.3,32.75 -30.23,20.77 -54.57,49.34 -72.97,85.62l-54.5 256.56 -39.5 0 86.84 -410.47z"/>
    <path class="fil2" d="M15211.19 10210.59l37.13 0 -21.33 97.89c23.15,-33.16 49.74,-58.94 79.72,-77.35 30.01,-18.43 60.51,-27.63 91.59,-27.63 32.08,0 55.65,9.83 70.63,29.57 15.03,19.77 22.52,47.74 22.52,84.09 22.07,-37.39 48.78,-65.66 80.12,-84.87 31.32,-19.22 63.55,-28.79 96.68,-28.79 31.6,0 54.45,8.79 68.7,26.41 14.21,17.66 21.29,42.77 21.29,75.42 0,23.14 -3.15,49.71 -9.46,79.72l-50.52 236.01 -39.51 0 48.97 -228.92c5.23,-25.79 7.91,-49.2 7.91,-70.23 0,-54.75 -22.63,-82.13 -67.89,-82.13 -15.78,0 -31.47,3.15 -46.96,9.49 -15.56,6.31 -30.39,15 -44.6,26.05 -14.24,11.05 -27.52,24.45 -39.88,40.25 -12.35,15.8 -23.03,33.16 -31.97,52.09l-52.86 253.4 -39.51 0 48.18 -228.92c3.16,-14.18 5.34,-27.23 6.72,-39.07 1.29,-11.87 1.92,-22.78 1.92,-32.76 0,-53.68 -22.32,-80.53 -67.06,-80.53 -15.81,0 -31.61,3.05 -47.38,9.09 -15.76,6.05 -30.78,14.77 -44.99,26.04 -14.21,11.36 -27.38,24.74 -39.48,40.25 -12.09,15.54 -22.88,32.79 -32.34,51.75l-53.68 254.15 -39.51 0 86.85 -410.47z"/>
    <path class="fil2" d="M16224.03 10235.84c-24.75,0 -47.56,4.64 -68.3,13.84 -20.81,9.2 -39.36,21.3 -55.68,36.28 -16.32,15 -30.23,32.24 -41.81,51.72 -11.61,19.47 -20.29,39.47 -26.04,59.99 22.11,1.58 41.96,2.63 59.57,3.18 17.63,0.49 34.87,0.75 51.72,0.75 32.64,0 60.09,-2.2 82.46,-6.68 22.37,-4.46 40.4,-10.65 54.09,-18.55 13.68,-7.9 23.56,-17.25 29.6,-28.04 6.05,-10.76 9.06,-22.75 9.06,-35.91 0,-13.14 -2.75,-24.6 -8.25,-34.36 -5.56,-9.68 -12.64,-17.73 -21.32,-24.03 -8.68,-6.35 -18.81,-10.95 -30.42,-13.84 -11.54,-2.85 -23.15,-4.35 -34.68,-4.35zm-84.52 393.11c-24.74,0 -46.65,-4.59 -65.88,-13.79 -19.25,-9.2 -35.53,-21.74 -48.92,-37.51 -13.47,-15.76 -23.6,-34.2 -30.43,-55.27 -6.82,-21.03 -10.27,-43.41 -10.27,-67.07 0,-32.12 6.19,-63.29 18.55,-93.55 12.39,-30.24 29.64,-57.1 51.75,-80.54 22.07,-23.41 47.97,-42.18 77.72,-56.43 29.75,-14.2 61.99,-21.29 96.71,-21.29 16.28,0 32.08,2.33 47.37,7.09 15.25,4.75 28.78,11.72 40.65,20.92 11.84,9.2 21.3,20.66 28.38,34.31 7.12,13.69 10.69,29.49 10.69,47.41 0,78.91 -71.56,118.37 -214.72,118.37 -16.83,0 -34.6,-0.25 -53.27,-0.78 -18.7,-0.51 -39.36,-1.59 -61.99,-3.18 -0.51,4.26 -0.88,8.71 -1.14,13.47 -0.3,4.74 -0.41,9.19 -0.41,13.38 0,19.48 2.45,37.92 7.49,55.28 5.01,17.36 12.61,32.49 22.89,45.41 10.28,12.9 23.15,23.14 38.65,30.74 15.55,7.65 33.58,11.47 54.09,11.47 13.17,0 26.71,-1.97 40.65,-5.93 13.96,-3.94 27.24,-9.47 39.89,-16.59 12.61,-7.08 24.29,-15.8 35.09,-26.04 10.8,-10.24 19.88,-21.7 27.27,-34.35l33.12 10.31c-9.42,15.73 -20.88,29.98 -34.31,42.59 -13.43,12.65 -28.16,23.59 -44.22,32.79 -16.02,9.2 -33.02,16.28 -50.89,21.3 -17.89,5 -36.1,7.48 -54.51,7.48z"/>
    <path class="fil2" d="M16670 10628.95c-29.98,0 -57.73,-5.22 -83.28,-15.8 -25.53,-10.49 -46.19,-26.3 -61.96,-47.33l24.45 -26.86c17.36,20.03 36.2,34.76 56.47,44.22 20.25,9.5 43.76,14.21 70.62,14.21 18.96,0 36.46,-2.38 52.49,-7.12 16.07,-4.76 30.01,-11.29 41.85,-19.74 11.83,-8.42 21.03,-18.65 27.64,-30.76 6.56,-12.09 9.86,-25.77 9.86,-41.06 0,-19.99 -9.2,-34.72 -27.6,-44.22 -18.44,-9.45 -44.74,-18.65 -78.94,-27.6 -18.44,-4.74 -34.49,-9.5 -48.18,-14.24 -13.7,-4.71 -25.16,-10.09 -34.36,-16.14 -9.2,-6.05 -16.14,-13.31 -20.88,-21.74 -4.76,-8.42 -7.12,-18.66 -7.12,-30.75 0,-22.66 4.74,-42.77 14.21,-60.39 9.49,-17.66 22.1,-32.39 37.9,-44.25 15.77,-11.8 34.06,-20.74 54.87,-26.8 20.77,-6.04 42.48,-9.08 65.1,-9.08 30.53,0 56.43,5.38 77.8,16.17 21.29,10.8 36.38,24.6 45.33,41.44l-26.05 21.3c-8.93,-15.78 -22.99,-27.64 -42.21,-35.55 -19.22,-7.82 -40.66,-11.79 -64.33,-11.79 -16.32,0 -31.82,1.96 -46.59,5.9 -14.73,3.97 -27.74,10.02 -39.1,18.18 -11.27,8.16 -20.37,18.43 -27.19,30.79 -6.83,12.38 -10.28,26.97 -10.28,43.77 0,8.97 1.86,16.51 5.53,22.52 3.67,6.08 9.09,11.31 16.21,15.76 7.09,4.53 16.14,8.46 27.19,11.87 11.1,3.45 23.97,6.97 38.7,10.65 20.55,5.27 38.8,10.54 54.9,15.81 16.03,5.22 29.67,11.42 41.03,18.54 11.32,7.08 19.84,15.55 25.63,25.22 5.82,9.76 8.71,21.44 8.71,35.18 0,20.51 -4.49,39.31 -13.45,56.41 -8.94,17.11 -21.3,31.87 -37.1,44.23 -15.77,12.39 -34.58,21.96 -56.43,28.82 -21.85,6.79 -45.63,10.23 -71.44,10.23z"/>
    <path class="fil1" d="M6572.96 8845.33l-300.74 -770.64 -310.12 770.64 610.86 0zm-390.04 -1014.95l178.56 0 681.38 1668.11 -225.55 0 -197.39 -488.71 -700.16 0 -194.97 488.71 -225.54 0 683.67 -1668.11z"/>
    <polygon class="fil1" points="8943.52,9498.49 8943.52,8208.61 8389.04,9197.75 8269.22,9197.75 7712.37,8208.61 7712.37,9498.49 7500.95,9498.49 7500.95,7830.38 7724.16,7830.38 8327.94,8913.44 8934.14,7830.38 9154.96,7830.38 9154.96,9498.49 "/>
    <path class="fil1" d="M10686.78 8845.33l-300.7 -770.64 -310.16 770.64 610.86 0zm-390.03 -1014.95l178.59 0 681.34 1668.11 -225.55 0 -197.34 -488.71 -700.17 0 -194.97 488.71 -225.55 0 683.65 -1668.11z"/>
    <polygon class="fil1" points="11614.81,9498.49 11614.81,7830.38 11826.23,7830.38 11826.23,9310.52 12756.64,9310.52 12756.64,9498.49 "/>
    <polygon class="fil1" points="13221.83,9498.49 13221.83,7830.38 14323.69,7830.38 14323.69,8018.31 13433.24,8018.31 13433.24,8575.13 14182.73,8575.13 14182.73,8751.33 13433.24,8751.33 13433.24,9498.49 "/>
    <polygon class="fil1" points="14826.5,9498.49 15037.9,9498.49 15037.9,7830.37 14826.5,7830.37 "/>
    <path class="fil1" d="M16652.01 8180.42c-18.82,-21.89 -43.9,-43.06 -75.2,-63.43 -31.35,-20.33 -66.58,-38.77 -105.72,-55.21 -39.18,-16.42 -81.88,-29.75 -128.06,-39.95 -46.18,-10.12 -94.38,-15.24 -144.49,-15.24 -130.03,0 -225.17,24.3 -285.46,72.82 -60.31,48.56 -90.47,115.11 -90.47,199.73 0,45.4 8.6,83.02 25.89,112.76 17.21,29.75 44.22,55.2 81.02,76.35 36.76,21.11 82.61,39.58 137.44,55.2 54.83,15.65 119.85,32.13 195.02,49.34 86.1,18.77 164.07,40.32 233.78,64.62 69.66,24.3 129.2,54.42 178.54,90.44 49.34,36.06 86.92,79.91 112.77,131.58 25.85,51.71 38.77,115.15 38.77,190.3 0,79.88 -15.66,149.16 -46.96,207.89 -31.39,58.76 -74.01,107.32 -128.06,145.67 -54.02,38.4 -117.89,66.63 -191.5,84.59 -73.63,18.02 -153.49,27.04 -239.59,27.04 -128.47,0 -250.26,-19.95 -365.37,-59.91 -115.15,-39.92 -219.68,-98.3 -313.65,-175.02l100.98 -178.59c25.07,26.64 57.57,53.28 97.52,79.91 39.96,26.64 85.37,50.5 136.26,71.63 50.9,21.15 105.75,38.44 164.48,51.72 58.76,13.28 120.2,19.96 184.44,19.96 119.01,0 211.45,-21.15 277.22,-63.43 65.81,-42.3 98.68,-105.74 98.68,-190.31 0,-47.01 -10.57,-86.54 -31.71,-118.67 -21.15,-32.05 -52.09,-59.87 -92.78,-83.4 -40.77,-23.48 -91.3,-44.22 -151.54,-62.28 -60.32,-17.95 -128.88,-36.39 -205.59,-55.2 -84.57,-20.32 -158.99,-42.29 -223.21,-65.73 -64.25,-23.52 -117.86,-51.71 -160.96,-84.62 -43.07,-32.87 -75.56,-72.86 -97.49,-119.82 -21.92,-47 -32.86,-103.35 -32.86,-169.16 0,-79.87 14.84,-150.35 44.63,-211.45 29.75,-61.06 71.25,-112.77 124.49,-155.06 53.27,-42.29 116.7,-74.01 190.3,-95.15 73.64,-21.15 153.5,-31.76 239.68,-31.76 112.78,0 214.57,17.29 305.45,51.72 90.81,34.5 171.5,80.72 241.98,138.62l-98.67 171.5z"/>
   </g>
  </g>
 </g>
</svg>
