<?xml version="1.0" standalone="no"?>
<!DOCTYPE svg PUBLIC "-//W3C//DTD SVG 20010904//EN"
 "http://www.w3.org/TR/2001/REC-SVG-20010904/DTD/svg10.dtd">
<svg version="1.0" xmlns="http://www.w3.org/2000/svg"
 width="200.000000pt" height="200.000000pt" viewBox="0 0 200.000000 200.000000"
 preserveAspectRatio="xMidYMid meet">

<g transform="translate(0.000000,200.000000) scale(0.100000,-0.100000)"
fill="#fff" stroke="none">
<path d="M815 1873 c-327 -69 -587 -319 -676 -648 -18 -63 -22 -109 -23 -220
0 -148 10 -207 59 -331 19 -48 75 -156 90 -172 1 -2 19 7 39 19 20 12 61 23
96 26 l59 6 221 661 c121 364 220 665 220 669 0 9 1 9 -85 -10z m-45 -110 c0
-7 -370 -1125 -374 -1130 -1 -1 -26 -3 -56 -5 l-54 -3 -28 67 c-40 95 -58 193
-58 317 0 320 189 608 479 732 68 29 91 35 91 22z"/>
<path d="M981 1868 c-32 -85 -332 -1010 -329 -1014 3 -2 20 2 39 10 65 27 194
48 299 49 116 0 197 -12 301 -48 61 -20 69 -21 64 -7 -104 328 -344 1027 -353
1030 -7 2 -16 -7 -21 -20z m133 -554 c59 -179 106 -328 103 -330 -3 -3 -40 -1
-82 5 -95 14 -189 14 -279 1 -38 -6 -71 -8 -73 -6 -6 6 210 656 217 656 3 0
54 -147 114 -326z"/>
<path d="M1103 1877 c2 -6 116 -349 252 -762 136 -412 249 -752 252 -755 8 -8
94 91 144 168 139 212 177 497 97 742 -105 324 -373 554 -717 614 -24 4 -32 3
-28 -7z m252 -152 c355 -172 531 -581 414 -962 -21 -69 -74 -178 -108 -222
-18 -24 -18 -24 -225 595 -113 340 -206 623 -206 628 0 13 49 -2 125 -39z"/>
<path d="M820 816 c-78 -18 -150 -43 -185 -64 -25 -16 -35 -36 -64 -125 l-35
-107 37 -38 c20 -20 43 -54 52 -74 19 -47 19 -128 1 -172 l-14 -34 50 -22
c106 -46 196 -63 333 -63 179 0 312 35 455 119 105 62 103 31 20 278 l-72 218
-62 29 c-33 15 -88 36 -121 45 -78 22 -318 28 -395 10z m364 -91 c33 -8 79
-24 102 -34 l42 -19 57 -172 c31 -94 55 -173 54 -174 -26 -21 -113 -61 -189
-88 -92 -31 -100 -33 -250 -32 -127 0 -166 4 -215 20 l-60 20 0 74 c-1 81 -24
147 -69 201 l-24 29 21 65 c21 65 22 65 77 86 133 50 321 60 454 24z"/>
<path d="M344 451 c-72 -44 -98 -112 -69 -186 21 -56 63 -87 125 -93 52 -5 90
10 129 52 37 39 41 128 9 176 -44 66 -132 89 -194 51z m114 -81 c28 -26 29
-73 2 -100 -42 -42 -113 -11 -113 50 0 61 67 91 111 50z"/>
</g>
</svg>
